<?xml version="1.0" standalone="no"?>
<!DOCTYPE svg PUBLIC "-//W3C//DTD SVG 20010904//EN"
 "http://www.w3.org/TR/2001/REC-SVG-20010904/DTD/svg10.dtd">
<svg version="1.0" xmlns="http://www.w3.org/2000/svg"
 width="250.000000pt" height="250.000000pt" viewBox="0 0 250.000000 250.000000"
 preserveAspectRatio="xMidYMid meet">

<g transform="translate(0.000000,250.000000) scale(0.100000,-0.100000)"
fill="#000000" stroke="none">
<path d="M911 2450 c-202 -42 -368 -159 -401 -281 -9 -32 -6 -52 20 -134 l31
-96 -41 -45 c-49 -54 -79 -116 -86 -182 -5 -42 14 -103 171 -567 98 -286 210
-619 251 -740 83 -246 100 -275 185 -317 110 -53 260 -62 431 -28 256 53 499
204 577 362 40 80 46 115 28 174 -12 39 -330 980 -459 1356 -38 112 -60 144
-133 192 -47 32 -70 41 -116 44 l-58 4 -26 77 c-35 105 -55 134 -111 162 -55
26 -184 35 -263 19z m98 -103 c17 -50 31 -95 31 -98 0 -4 -13 -9 -29 -11 -30
-4 -30 -3 -64 91 -31 85 -33 97 -18 103 42 17 49 10 80 -85z m19 18 c0 -5 -6
4 -13 20 -8 17 -14 37 -14 45 0 8 7 -1 14 -20 7 -19 13 -39 13 -45z m104 -15
c34 -102 34 -111 6 -107 -18 3 -28 21 -54 101 l-33 97 26 -3 c23 -3 30 -13 55
-88z m-208 -13 c16 -45 31 -89 34 -97 3 -8 1 -11 -4 -7 -11 11 -73 187 -65
187 3 0 19 -37 35 -83z m-55 -20 c17 -50 31 -95 31 -99 0 -3 -13 -11 -29 -16
l-29 -10 -35 96 -35 97 27 12 c14 7 29 12 33 13 3 0 20 -42 37 -93z m31 -1
c17 -48 29 -90 27 -93 -3 -2 -17 33 -32 79 -16 46 -30 90 -33 98 -3 8 -2 13 1
10 3 -3 20 -45 37 -94z m333 -8 c31 -98 32 -99 13 -92 -8 3 -27 42 -42 87 -15
45 -29 88 -32 96 -4 10 -1 11 14 3 12 -6 29 -42 47 -94z m-444 -23 c17 -44 31
-86 31 -95 -1 -13 -47 102 -66 163 -14 47 6 7 35 -68z m-21 -25 c17 -46 29
-86 27 -88 -3 -3 -7 1 -9 9 -3 8 -19 52 -36 99 -17 47 -27 81 -22 75 5 -5 23
-48 40 -95z m-29 -5 c19 -53 32 -97 30 -99 -2 -2 -14 -9 -27 -15 -19 -10 -23
-9 -29 6 -3 10 -19 52 -35 93 l-28 75 21 18 c12 9 24 17 28 17 4 0 22 -43 40
-95z m-101 -87 c27 -76 29 -88 16 -99 -20 -17 -27 -7 -59 88 -24 69 -26 85
-15 98 18 21 22 14 58 -87z m564 22 c13 -5 19 -9 13 -9 -5 -1 -55 -8 -110 -16
-157 -24 -304 -63 -375 -101 l-65 -34 40 35 c51 46 184 110 255 124 30 6 64
13 75 15 28 7 140 -3 167 -14z m-633 -113 c16 -48 26 -89 21 -92 -9 -6 -60
138 -60 169 0 31 8 15 39 -77z m935 -397 c90 -267 178 -525 194 -574 17 -49
29 -92 27 -96 -3 -4 -35 -11 -72 -14 -38 -4 -127 -17 -200 -29 l-132 -22 -79
230 c-43 126 -127 373 -187 548 -60 176 -118 334 -131 352 l-22 33 112 21
c120 23 254 40 298 37 27 -1 30 -7 192 -486z m-41 457 c76 -49 99 -82 140
-198 120 -351 427 -1263 424 -1265 -8 -8 -119 103 -144 144 -41 66 -44 74
-255 697 -104 308 -192 562 -194 564 -2 2 -6 2 -9 -1 -9 -8 393 -1186 423
-1242 26 -48 70 -98 160 -178 114 -102 50 -273 -158 -422 -8 -6 19 23 61 64
89 87 129 157 129 225 0 63 -16 89 -103 167 -54 49 -83 85 -111 138 -38 71
-456 1284 -456 1321 0 29 34 23 93 -14z m-552 -77 c11 -14 88 -230 173 -480
85 -250 173 -509 196 -575 82 -236 63 -289 -174 -489 -104 -88 -160 -201 -141
-286 9 -42 70 -108 120 -131 22 -10 34 -19 27 -19 -19 0 -94 39 -120 64 -37
33 -52 70 -52 127 0 76 46 156 134 233 152 132 194 180 211 241 11 37 15 72
11 99 -4 22 -63 208 -132 411 -69 204 -154 453 -188 554 -35 102 -68 187 -74
189 -9 3 146 -467 327 -992 54 -156 60 -208 32 -272 -25 -56 -68 -104 -163
-181 -79 -62 -141 -141 -168 -210 -11 -26 -19 -45 -20 -42 0 3 -103 310 -230
683 -137 403 -230 692 -230 714 0 45 37 127 82 183 41 51 177 155 243 185 64
30 112 27 136 -6z m840 -1107 c6 -21 30 -74 52 -118 31 -63 57 -97 123 -160
88 -85 109 -120 98 -169 -18 -88 -132 -219 -245 -284 -76 -43 -199 -90 -293
-112 -286 -66 -489 -6 -504 150 -8 89 49 168 240 332 102 88 135 173 114 294
l-7 41 138 22 c76 12 165 26 198 30 33 5 63 9 67 10 3 0 12 -16 19 -36z m-16
-783 c-3 -5 -12 -10 -18 -10 -7 0 -6 4 3 10 19 12 23 12 15 0z m-56 -24 c-9
-9 -106 -44 -139 -50 -19 -3 1 7 45 23 79 28 102 35 94 27z m-199 -66 c-14 -4
-36 -8 -50 -8 -22 0 -22 1 5 8 17 4 39 8 50 8 16 0 15 -2 -5 -8z m-163 -16
c-3 -3 -12 -4 -19 -1 -8 3 -5 6 6 6 11 1 17 -2 13 -5z m71 -1 c-10 -2 -28 -2
-40 0 -13 2 -5 4 17 4 22 1 32 -1 23 -4z"/>
<path d="M1470 1303 c-73 -8 -139 -25 -150 -39 -14 -16 -2 -78 32 -157 28 -64
41 -70 130 -57 144 22 160 35 133 112 -39 116 -63 151 -98 146 -7 0 -28 -3
-47 -5z m88 -50 c11 -21 27 -62 37 -92 22 -69 17 -73 -102 -90 -105 -15 -107
-13 -143 100 -22 68 -23 72 -6 85 10 7 44 16 75 19 31 4 61 8 66 10 35 12 55
3 73 -32z"/>
<path d="M1403 1240 c-29 -12 -29 -40 -3 -99 l20 -44 54 7 c30 3 61 9 70 12
21 8 20 40 -4 92 -19 41 -20 42 -67 41 -26 0 -58 -4 -70 -9z m127 -60 c7 -22
11 -42 8 -45 -3 -3 -29 -6 -59 -8 l-54 -2 -14 42 c-8 23 -12 45 -8 49 12 12
91 21 103 12 6 -4 17 -26 24 -48z"/>
<path d="M1413 160 c-13 -5 -23 -17 -23 -26 0 -14 8 -16 52 -11 46 6 67 18 68
40 0 10 -70 8 -97 -3z"/>
</g>
</svg>
