<?xml version="1.0" standalone="no"?>
<!DOCTYPE svg PUBLIC "-//W3C//DTD SVG 20010904//EN"
 "http://www.w3.org/TR/2001/REC-SVG-20010904/DTD/svg10.dtd">
<svg version="1.0" xmlns="http://www.w3.org/2000/svg"
 width="250.000000pt" height="250.000000pt" viewBox="0 0 250.000000 250.000000"
 preserveAspectRatio="xMidYMid meet">

<g transform="translate(0.000000,250.000000) scale(0.100000,-0.100000)"
fill="#000000" stroke="none">
<path d="M1123 2424 l-68 -77 -3 -1111 c-1 -611 1 -1129 5 -1151 8 -37 13 -41
59 -57 28 -9 77 -20 110 -23 l59 -7 78 61 77 61 -2 1163 -3 1162 -37 18 c-20
10 -54 20 -75 23 -30 3 -26 1 17 -11 30 -9 58 -19 63 -24 4 -4 -22 -33 -58
-65 l-65 -58 -48 16 c-26 9 -69 19 -95 22 l-48 7 57 58 c48 49 64 59 98 62
l41 4 -47 1 c-46 2 -47 1 -115 -74z m307 -811 l0 -828 -70 -63 -70 -63 0 818
-1 818 68 64 c56 52 59 56 16 21 -29 -23 -55 -46 -59 -51 -3 -5 -11 -9 -17 -9
-12 0 112 119 125 120 4 0 8 -372 8 -827z m-203 713 c37 -12 38 -15 41 -64 2
-29 -1 -52 -5 -52 -4 0 -27 7 -51 15 -24 9 -66 16 -93 17 l-49 1 0 55 0 55 60
-7 c33 -4 77 -13 97 -20z m5 -119 l38 -16 -1 -770 c0 -424 -2 -771 -2 -771 -7
0 -166 32 -178 35 -26 8 -32 247 -23 937 l7 610 61 -4 c34 -3 78 -12 98 -21z
m164 -1501 c-36 -31 -36 -32 -36 -109 l0 -78 35 27 35 26 0 -220 0 -220 -64
-51 c-35 -28 -67 -51 -70 -51 -3 0 -6 138 -6 308 l0 307 68 57 c38 33 69 53
71 46 2 -7 -12 -26 -33 -42z m7 -142 l-28 -22 -3 60 c-3 55 0 64 25 90 l28 29
3 -67 c3 -64 1 -69 -25 -90z m-223 87 l85 -18 3 -281 2 -282 -42 0 c-23 0 -68
7 -100 16 l-58 17 0 283 c0 221 3 284 13 284 6 -1 50 -9 97 -19z m7 -590 c50
-9 85 -21 88 -30 8 -22 2 -23 -70 -11 -85 14 -135 34 -135 56 0 12 5 14 18 9
9 -5 54 -15 99 -24z"/>
<path d="M1120 181 c0 -45 1 -47 53 -56 l37 -7 0 45 c0 47 -11 57 -67 57 -20
0 -23 -5 -23 -39z m54 13 c9 -4 16 -18 16 -34 0 -26 -2 -28 -27 -21 -21 5 -29
15 -31 34 -3 28 9 34 42 21z"/>
</g>
</svg>
